<svg xmlns="http://www.w3.org/2000/svg" viewBox="0 0 24 24" width="24" height="24" aria-hidden="true">
  <g fill="#3f4851">
    <rect x="11" y="1.5" width="2" height="4" rx="1"/>
    <rect x="11" y="18.5" width="2" height="4" rx="1"/>
    <rect x="18.5" y="11" width="4" height="2" rx="1"/>
    <rect x="1.5" y="11" width="4" height="2" rx="1"/>
    <rect x="11" y="1.5" width="2" height="4" rx="1" transform="rotate(45 12 12)"/>
    <rect x="11" y="18.5" width="2" height="4" rx="1" transform="rotate(45 12 12)"/>
    <rect x="11" y="1.5" width="2" height="4" rx="1" transform="rotate(-45 12 12)"/>
    <rect x="11" y="18.5" width="2" height="4" rx="1" transform="rotate(-45 12 12)"/>
    <circle cx="12" cy="12" r="6.5"/>
  </g>
  <circle cx="12" cy="12" r="3.2" fill="#e0ea9b"/>
</svg>
